# xmcd
#
# Track frame offsets: 
#        150
#        27145
#        43344
#        66327
#        82140
#        103287
#        122695
#        139970
#        164995
#        181795
#        203577
#        233245
#        261070
#        279871
#        309220
#
# Disc length: 4403 seconds
#
# Revision: 6
# Processed by: cddbd v1.5.2PL0 Copyright (c) Steve Scherf et al.
# Submitted via: ExactAudioCopy v1.0b4
#
DISCID=d911310f
DTITLE=Peter Green Splinter Group - The Best Of [ disk 1]
DYEAR=2002
DGENRE=Blues Rock
TTITLE0=Peter Green . Splinter Group - Burglar (Destiny Road)
TTITLE1=Peter Green . Splinter Group - I'm A Steady Rollin Man (Hot Fo
TTITLE1=ot Powder)
TTITLE2=Peter Green . Splinter Group - Big Change Is Gonna Come (Desti
TTITLE2=ny Road)
TTITLE3=Peter Green . Splinter Group - Phonograph Blues (Robert Johnso
TTITLE3=n Songbook)
TTITLE4=Peter Green . Splinter Group - Help Me (Soho Live)
TTITLE5=Peter Green . Splinter Group - Sweet Home Chicago (Robert John
TTITLE5=son Songbook)
TTITLE6=Peter Green . Splinter Group - Hitch Hiking Woman (Peter Green
TTITLE6=Splinter Group)
TTITLE7=Peter Green . Splinter Group - Tribal Dance (Destiny Road)
TTITLE8=Peter Green . Splinter Group - Homework (Soho Live)
TTITLE9=Peter Green . Splinter Group - Love In Vain Blues (Robert John
TTITLE9=son Songbook)
TTITLE10=Peter Green . Splinter Group - You'll Be Sorry Someday (Desti
TTITLE10=ny Road)
TTITLE11=Peter Green . Splinter Group - Look On Yonder Wall (Peter Gre
TTITLE11=en Splinter Group)
TTITLE12=Peter Green . Splinter Group - Traveling Riverside Blues (Hot
TTITLE12=Foot Powder)
TTITLE13=Peter Green . Splinter Group - Goin Down (Soho Live)
TTITLE14=Peter Green . Splinter Group - Hiding In Shadows (Destiny Roa
TTITLE14=d)
EXTD=YEAR: 2002
EXTT0=
EXTT1=
EXTT2=
EXTT3=
EXTT4=
EXTT5=
EXTT6=
EXTT7=
EXTT8=
EXTT9=
EXTT10=
EXTT11=
EXTT12=
EXTT13=
EXTT14=
PLAYORDER=
